<?xml version="1.0" encoding="UTF-8"?>
<svg id="Layer_2" data-name="Layer 2" xmlns="http://www.w3.org/2000/svg" xmlns:xlink="http://www.w3.org/1999/xlink" viewBox="0 0 592.8 201.72">
  <defs>
    <style>
      .cls-1, .cls-2 {
        fill: #1f3373;
      }

      .cls-1, .cls-3 {
        fill-rule: evenodd;
      }

      .cls-4, .cls-3 {
        fill: #e66300;
      }

      .cls-5, .cls-6 {
        fill: none;
      }

      .cls-6 {
        clip-path: url(#clippath);
      }
    </style>
    <clipPath id="clippath">
      <rect class="cls-5" width="592.8" height="201.72"/>
    </clipPath>
  </defs>
  <g id="Layer_1-2" data-name="Layer 1">
    <path class="cls-1" d="m.11,79.82h15.46l-.03.58c0,30.68,24.87,55.54,55.54,55.54s55.54-24.87,55.54-55.54l-.03-.58h15.46l-.07,4.54c-1.01,15.89-7.34,31.54-19.08,44.06l-48.6,51.82-51.82-48.6C8.17,118.22.66,100.27.07,82.1l.04-2.28ZM76.46,9.01l5.95.66c13.51,2.17,26.54,8.26,37.27,18.32h0c12.52,11.74,19.84,26.95,21.87,42.75l.07.83h-15.75l-.36-2.37c-4.81-23.5-24.46-41.6-48.74-44.06l-.53-.03.23-16.1h0Zm-9.94-.02l-.23,16.1-.89.04c-24.27,2.47-43.93,20.56-48.74,44.06l-.36,2.37H.59l.34-3.08c2.17-13.51,8.26-26.54,18.32-37.27,11.74-12.52,26.95-19.84,42.75-21.87l4.51-.36Z"/>
    <rect class="cls-4" x="71.05" y="60.41" width="3.51" height="53.37" rx=".59" ry=".59" transform="translate(-39.3 69.29) rotate(-41.08)"/>
    <path class="cls-3" d="m42.57,71.11c-4.8-5.51-4.75-13.42.13-17.67,4.87-4.25,12.72-3.23,17.52,2.28,4.8,5.51,4.75,13.42-.13,17.67s-12.72,3.23-17.52-2.28h0Z"/>
    <rect class="cls-4" x="43.91" y="89.68" width="46.43" height="3.35" rx=".56" ry=".56" transform="translate(-45.65 79.83) rotate(-47.86)"/>
    <rect class="cls-4" x="87.36" y="64.77" width="22.68" height="3.35" rx=".56" ry=".56" transform="translate(-16.79 95.05) rotate(-47.86)"/>
    <rect class="cls-4" x="82.39" y="60.28" width="22.68" height="3.35" rx=".56" ry=".56" transform="translate(-15.1 89.89) rotate(-47.86)"/>
    <rect class="cls-4" x="78.25" y="56.53" width="22.68" height="3.35" rx=".56" ry=".56" transform="translate(-13.68 85.58) rotate(-47.86)"/>
    <path class="cls-3" d="m84.7,61.12l-3.96,4.37c-2.19,2.42-1.33,6.75,1.9,9.67,3.24,2.93,7.63,3.34,9.82.93l3.96-4.37-11.72-10.6h0Z"/>
    <g class="cls-6">
      <g>
        <path class="cls-2" d="m187.47,50.11h43.77v11.9h-29.57v18.53h25.25v11.9h-25.25v28.8h-14.21V50.11Z"/>
        <path class="cls-2" d="m239.12,94.37c0-17.85,12.38-28.22,25.82-28.22s25.82,10.37,25.82,28.22-12.38,28.22-25.82,28.22-25.82-10.37-25.82-28.22Zm37.25,0c0-10.08-4.13-16.7-11.42-16.7s-11.42,6.62-11.42,16.7,4.13,16.7,11.42,16.7,11.42-6.53,11.42-16.7Z"/>
        <path class="cls-2" d="m299.21,94.37c0-17.85,12.38-28.22,25.82-28.22s25.82,10.37,25.82,28.22-12.38,28.22-25.82,28.22-25.82-10.37-25.82-28.22Zm37.25,0c0-10.08-4.13-16.7-11.42-16.7s-11.42,6.62-11.42,16.7,4.13,16.7,11.42,16.7,11.42-6.53,11.42-16.7Z"/>
        <path class="cls-2" d="m359.6,94.37c0-17.47,10.94-28.22,22.56-28.22,6.05,0,9.79,2.3,13.63,5.86l-.48-8.45v-18.91h14.02v76.6h-11.42l-1.06-5.57h-.38c-3.94,3.84-9.31,6.91-14.88,6.91-13.34,0-21.98-10.56-21.98-28.22Zm35.71,11.04v-23.61c-3.26-2.98-6.72-4.03-10.08-4.03-6.05,0-11.13,5.76-11.13,16.51s4.03,16.7,11.13,16.7c3.74,0,6.91-1.54,10.08-5.57Z"/>
        <path class="cls-2" d="m423.34,51.07c0-4.61,3.36-7.68,8.25-7.68s8.16,3.07,8.16,7.68-3.36,7.78-8.16,7.78-8.25-3.07-8.25-7.78Zm1.15,16.42h14.11v53.76h-14.11v-53.76Z"/>
        <path class="cls-2" d="m456.07,78.62h-7.2v-10.46l7.2-.58v-4.42c0-11.23,5.18-19.87,18.72-19.87,4.13,0,7.78.96,10.17,1.82l-2.59,10.46c-1.82-.77-3.94-1.15-5.66-1.15-4.22,0-6.53,2.5-6.53,8.45v4.61h10.08v11.13h-10.08v42.62h-14.11v-42.62Z"/>
        <path class="cls-2" d="m486.7,141.79l2.59-10.85c.96.29,2.5.67,3.74.67,5.47,0,8.54-3.46,10.08-8.16l.96-3.17-20.93-52.8h14.21l8.54,24.96c1.63,4.8,2.98,9.98,4.51,15.17h.48c1.25-4.99,2.59-10.18,3.84-15.17l7.39-24.96h13.54l-19.1,55.39c-4.7,12.67-10.46,19.97-22.46,19.97-3.17,0-5.28-.38-7.39-1.06Z"/>
      </g>
    </g>
  </g>
</svg>
