<?xml version="1.0" encoding="UTF-8" standalone="no"?>
<!-- Created with Inkscape (http://www.inkscape.org/) -->

<svg
   width="253.27713mm"
   height="121.63115mm"
   viewBox="0 0 253.27713 121.63115"
   version="1.1"
   id="svg5"
   xmlns:inkscape="http://www.inkscape.org/namespaces/inkscape"
   xmlns:sodipodi="http://sodipodi.sourceforge.net/DTD/sodipodi-0.dtd"
   xmlns="http://www.w3.org/2000/svg"
   xmlns:svg="http://www.w3.org/2000/svg">
  <sodipodi:namedview
     id="namedview7"
     pagecolor="#ffffff"
     bordercolor="#000000"
     borderopacity="0.25"
     inkscape:showpageshadow="2"
     inkscape:pageopacity="0.0"
     inkscape:pagecheckerboard="0"
     inkscape:deskcolor="#d1d1d1"
     inkscape:document-units="mm"
     showgrid="false" />
  <defs
     id="defs2" />
  <g
     inkscape:label="Layer 1"
     inkscape:groupmode="layer"
     id="layer1"
     transform="translate(-145.87754,-64.442488)">
    <g
       transform="matrix(0.26458333,0,0,0.26458333,72.984844,13.074733)"
       id="g320">
      <path
         d="m 712.074,388.431 c -0.546,-0.627 -0.481,-1.578 0.146,-2.125 l 4.541,-3.959 c 0.627,-0.547 1.579,-0.482 2.125,0.145 l 93.457,107.198 c 0.547,0.627 0.481,1.578 -0.146,2.125 l -4.541,3.959 c -0.627,0.547 -1.579,0.482 -2.125,-0.145 z"
         stroke="#ff9933"
         stroke-width="2.35417"
         stroke-linejoin="round"
         stroke-miterlimit="10"
         fill="#ff9933"
         fill-rule="evenodd"
         id="path290" />
      <path
         d="m 681.292,394.382 c -13.068,-14.99 -13.496,-36.005 -0.955,-46.939 12.541,-10.933 33.301,-7.645 46.37,7.345 13.068,14.99 13.496,36.005 0.955,46.939 -12.541,10.933 -33.301,7.645 -46.37,-7.345 z"
         stroke="#ff9933"
         stroke-width="2.35417"
         stroke-linejoin="round"
         stroke-miterlimit="10"
         fill="#ff9933"
         fill-rule="evenodd"
         id="path292" />
      <path
         d="m 783.548,401.993 c 0.533,-0.589 1.441,-0.634 2.03,-0.101 l 4.263,3.857 c 0.588,0.532 0.634,1.441 0.101,2.03 l -82.843,91.554 c -0.532,0.588 -1.441,0.634 -2.03,0.101 l -4.262,-3.857 c -0.589,-0.533 -0.634,-1.441 -0.102,-2.03 z"
         stroke="#ff9933"
         stroke-width="2.35417"
         stroke-linejoin="round"
         stroke-miterlimit="10"
         fill="#ff9933"
         fill-rule="evenodd"
         id="path294" />
      <path
         d="m 847.041,357.528 c 0.532,-0.588 1.441,-0.634 2.03,-0.101 l 4.262,3.857 c 0.589,0.532 0.634,1.441 0.102,2.03 l -39.478,43.628 c -0.532,0.589 -1.441,0.634 -2.03,0.102 l -4.262,-3.857 c -0.589,-0.533 -0.634,-1.442 -0.102,-2.03 z"
         stroke="#ff9933"
         stroke-width="2.35417"
         stroke-linejoin="round"
         stroke-miterlimit="10"
         fill="#ff9933"
         fill-rule="evenodd"
         id="path296" />
      <path
         d="m 834.252,345.957 c 0.533,-0.589 1.442,-0.634 2.03,-0.102 l 4.263,3.857 c 0.589,0.533 0.634,1.442 0.101,2.03 l -39.477,43.629 c -0.532,0.588 -1.441,0.634 -2.03,0.101 l -4.262,-3.857 c -0.589,-0.532 -0.634,-1.441 -0.102,-2.03 z"
         stroke="#ff9933"
         stroke-width="2.35417"
         stroke-linejoin="round"
         stroke-miterlimit="10"
         fill="#ff9933"
         fill-rule="evenodd"
         id="path298" />
      <path
         d="m 823.596,336.314 c 0.532,-0.588 1.441,-0.634 2.03,-0.101 l 4.262,3.857 c 0.589,0.532 0.634,1.441 0.102,2.03 l -39.478,43.628 c -0.532,0.589 -1.441,0.634 -2.03,0.102 l -4.262,-3.857 c -0.589,-0.533 -0.634,-1.442 -0.102,-2.03 z"
         stroke="#ff9933"
         stroke-width="2.35417"
         stroke-linejoin="round"
         stroke-miterlimit="10"
         fill="#ff9933"
         fill-rule="evenodd"
         id="path300" />
      <path
         d="m 0,0 h 16.0463 c 8.8621,0 16.0462,9.10229 16.0462,20.3305 0,11.2283 -7.1841,20.3306 -16.0462,20.3306 H 0 Z"
         stroke="#ff9933"
         stroke-width="2.35417"
         stroke-linejoin="round"
         stroke-miterlimit="10"
         fill="#ff9933"
         fill-rule="evenodd"
         transform="matrix(-0.67095,0.741503,0.741503,0.67095,793.92,369.11)"
         id="path302" />
      <path
         d="M 525.5,424 C 525.5,298.355 627.803,196.5 754,196.5 880.197,196.5 982.5,298.355 982.5,424 982.5,549.645 880.197,651.5 754,651.5 627.803,651.5 525.5,549.645 525.5,424 Z"
         stroke="#ff9933"
         stroke-width="4.70833"
         stroke-linejoin="round"
         stroke-miterlimit="10"
         fill="none"
         fill-rule="evenodd"
         id="path304" />
      <path
         d="m 540.5,424.5 c 0,-115.98 95.363,-210 213,-210 117.637,0 213,94.02 213,210 0,115.98 -95.363,210 -213,210 -117.637,0 -213,-94.02 -213,-210 z"
         stroke="#ff9933"
         stroke-width="4.70833"
         stroke-linejoin="round"
         stroke-miterlimit="10"
         fill="none"
         fill-rule="evenodd"
         id="path306" />
      <path
         d="M 361.5,333.5 H 665.768"
         stroke="#ff9933"
         stroke-width="4.70833"
         stroke-linejoin="round"
         stroke-miterlimit="10"
         fill="none"
         fill-rule="evenodd"
         id="path308" />
      <path
         d="M 322.5,315.5 H 626.768"
         stroke="#ff9933"
         stroke-width="4.70833"
         stroke-linejoin="round"
         stroke-miterlimit="10"
         fill="none"
         fill-rule="evenodd"
         id="path310" />
      <path
         d="M 275.5,298.5 H 561.825"
         stroke="#ff9933"
         stroke-width="4.70833"
         stroke-linejoin="round"
         stroke-miterlimit="10"
         fill="none"
         fill-rule="evenodd"
         id="path312" />
      <path
         d="M 0,0 304.268,1.23578e-4"
         stroke="#ff9933"
         stroke-width="4.70833"
         stroke-linejoin="round"
         stroke-miterlimit="10"
         fill="none"
         fill-rule="evenodd"
         transform="matrix(1,0,0,-1,928.5,515.5)"
         id="path314" />
      <path
         d="M 0,0 304.268,1.23578e-4"
         stroke="#ff9933"
         stroke-width="4.70833"
         stroke-linejoin="round"
         stroke-miterlimit="10"
         fill="none"
         fill-rule="evenodd"
         transform="matrix(1,0,0,-1,889.5,533.5)"
         id="path316" />
      <path
         d="M 0,0 286.325,1.23578e-4"
         stroke="#ff9933"
         stroke-width="4.70833"
         stroke-linejoin="round"
         stroke-miterlimit="10"
         fill="none"
         fill-rule="evenodd"
         transform="matrix(1,0,0,-1,841.5,551.5)"
         id="path318" />
    </g>
  </g>
</svg>
